<?xml version="1.0" encoding="utf-8"?>
<!-- Designed by Vexels.com - 2020 All Rights Reserved - https://vexels.com/terms-and-conditions/  -->
<svg version="1.1" id="Layer_1" xmlns="http://www.w3.org/2000/svg" xmlns:xlink="http://www.w3.org/1999/xlink" x="0px" y="0px"
	 viewBox="0 0 1200 1200" enable-background="new 0 0 1200 1200" xml:space="preserve">
<g>
	<g>
		<g>
			<path fill="#F7F5F5" d="M57.874,527.407c3.271,16.04,7.844,31.574,13.024,46.83h62.47l-50.243,31.755
				c9.003,20.427,19.609,39.976,31.841,58.382l143.263-90.137h83.241L141.687,699.925c4.862,5.766,10.021,11.258,15.205,16.73
				L351.33,594.271v233.948c12.202,2.823,24.617,5.036,37.23,6.685V527.407H57.874z"/>
		</g>
		<g>
			<path fill="#F7F5F5" d="M388.56,63.456c-12.613,1.649-25.029,3.862-37.23,6.687v249.856L147.949,191.544
				c-12.555,14.195-24.192,29.172-34.594,45.098l163.711,103.343h-83.281L91.353,275.288c-4.843,9.669-9.38,19.493-13.419,29.603
				l55.434,35.095h-67.56c-4.448,15.244-7.788,30.922-10.364,46.879H388.56V63.456z"/>
		</g>
		<g>
			<path fill="#F7F5F5" d="M823.395,386.864c-2.574-15.957-5.916-31.635-10.364-46.879h-57.583l47.337-29.951
				c-7.189-18.761-15.677-36.825-25.556-54.061l-133.633,84.012h-83.283l192.626-121.095c-5.802-7.882-11.763-15.615-18.125-23.03
				L537.487,319.999V72.709c-12.197-3.171-24.599-5.743-37.23-7.727v321.882H823.395z"/>
		</g>
		<g>
			<path fill="#F7F5F5" d="M500.256,833.38c12.632-1.985,25.033-4.557,37.23-7.729V594.271l188.308,118.152
				c14.355-15.609,27.598-32.22,39.277-50.023L624.76,574.237h83.244l79.079,49.679c3.816-7.58,7.733-15.104,11.059-22.958
				l-42.694-26.721h52.494c5.178-15.256,9.754-30.789,13.024-46.83H500.256V833.38z"/>
		</g>
		<g>
			<path fill="#323E95" d="M734.814,195.861C683.893,136.54,615.455,92.974,537.487,72.709v247.29L734.814,195.861z"/>
		</g>
		<g>
			<path fill="#323E95" d="M351.33,70.143c-80.161,18.569-150.671,61.821-203.381,121.401L351.33,319.999V70.143z"/>
		</g>
		<g>
			<path fill="#323E95" d="M813.031,339.985c-2.973-10.189-6.478-20.127-10.246-29.951l-47.337,29.951H813.031z"/>
		</g>
		<g>
			<path fill="#323E95" d="M798.141,600.958c3.684-8.699,6.743-17.71,9.8-26.721h-52.494L798.141,600.958z"/>
		</g>
		<g>
			<path fill="#323E95" d="M156.892,716.655c51.634,54.525,118.743,94.029,194.438,111.564V594.271L156.892,716.655z"/>
		</g>
		<g>
			<path fill="#323E95" d="M537.487,825.65c73.506-19.104,138.429-58.997,188.308-113.228L537.487,594.271V825.65z"/>
		</g>
		<g>
			<path fill="#323E95" d="M70.899,574.237c3.661,10.794,7.665,21.411,12.227,31.755l50.243-31.755H70.899z"/>
		</g>
		<g>
			<path fill="#323E95" d="M77.934,304.89c-4.574,11.452-8.636,23.14-12.125,35.095h67.56L77.934,304.89z"/>
		</g>
		<g>
			<path fill="#F32819" d="M643.596,339.985l133.633-84.012c-7.377-12.871-15.54-25.19-24.29-37.083L560.313,339.985H643.596z"/>
		</g>
		<g>
			<path fill="#CB001C" d="M624.76,574.237L765.071,662.4c8.09-12.332,15.335-25.231,22.011-38.484l-79.079-49.679H624.76z"/>
		</g>
		<g>
			<path fill="#F32819" d="M277.067,339.985L113.355,236.643c-8.093,12.387-15.338,25.332-22.002,38.645l102.432,64.698H277.067z"/>
		</g>
		<g>
			<path fill="#F32819" d="M258.231,574.237l-143.263,90.137c8.227,12.38,17.168,24.221,26.72,35.551l199.785-125.688H258.231z"/>
		</g>
		<g>
			<path fill="#F32819" d="M823.395,386.864H500.256V64.982c-19.872-3.129-40.088-5.221-60.837-5.221
				c-17.28,0-34.174,1.513-50.859,3.695v323.408H55.445C52.167,407.203,50,427.916,50,449.18c0,26.794,2.72,52.954,7.874,78.227
				H388.56v307.497c16.685,2.182,33.579,3.696,50.859,3.696c20.75,0,40.966-2.092,60.837-5.219V527.407h320.709
				c5.154-25.272,7.874-51.432,7.874-78.227C828.84,427.916,826.675,407.203,823.395,386.864z"/>
		</g>
	</g>
	<g>
		<g>
			<path fill="#323E95" d="M379.418,698.084h388.887V568.58V439.078v-73.224c-1.861-0.026-3.7-0.141-5.568-0.141
				C567.502,365.713,406.088,510.213,379.418,698.084z M678.285,556.827l15.972,32.366l35.721,5.192l-25.844,25.197l6.097,35.573
				l-31.946-16.799l-31.948,16.799l6.1-35.573l-25.846-25.197l35.721-5.192L678.285,556.827z M577.997,476.633l15.976-32.368
				l15.972,32.368l35.721,5.189l-25.846,25.194l6.1,35.575l-31.946-16.796l-31.953,16.796l6.107-35.575l-25.849-25.194
				L577.997,476.633z M509.773,556.827l15.972,32.366l35.718,5.192l-25.844,25.197l6.1,35.573l-31.946-16.799l-31.951,16.799
				l6.102-35.573l-25.844-25.197l35.718-5.192L509.773,556.827z"/>
		</g>
		<g>
			<path fill="#F32819" d="M989.422,439.078c-62.331-45.093-138.585-72.057-221.118-73.224v73.224H989.422z"/>
		</g>
		<g>
			<path fill="#F7F5F5" d="M768.305,568.58h335.057c-27.821-51.282-66.939-95.502-113.94-129.502H768.305V568.58z"/>
		</g>
		<g>
			<path fill="#F32819" d="M768.305,698.084h377.754c-6.574-46.3-21.259-89.988-42.696-129.504H768.305V698.084z"/>
		</g>
		<g>
			<path fill="#F7F5F5" d="M379.418,698.084c-2.546,17.939-3.942,36.25-3.942,54.892c0,25.529,2.539,50.456,7.252,74.605h760.02
				c4.715-24.149,7.252-49.076,7.252-74.605c0-18.643-1.396-36.953-3.942-54.892H768.305H379.418z"/>
		</g>
		<g>
			<path fill="#F32819" d="M433.654,957.083h658.169c24.288-39.076,41.804-82.777,50.926-129.502h-760.02
				C391.849,874.306,409.366,918.007,433.654,957.083z"/>
		</g>
		<g>
			<path fill="#F32819" d="M762.737,1140.239c71.794,0,138.975-19.608,196.616-53.653H566.123
				C623.764,1120.631,690.945,1140.239,762.737,1140.239z"/>
		</g>
		<g>
			<path fill="#F7F5F5" d="M566.123,1086.586h393.231c53.925-31.85,99.443-76.37,132.469-129.502H433.654
				C466.68,1010.216,512.198,1054.736,566.123,1086.586z"/>
		</g>
		<g>
			<polygon fill="#F7F5F5" points="483.924,619.583 477.822,655.156 509.773,638.357 541.719,655.156 535.619,619.583 
				561.463,594.386 525.745,589.194 509.773,556.827 493.799,589.194 458.081,594.386 			"/>
		</g>
		<g>
			<polygon fill="#F7F5F5" points="652.437,619.583 646.337,655.156 678.285,638.357 710.231,655.156 704.134,619.583 
				729.978,594.386 694.257,589.194 678.285,556.827 662.311,589.194 626.591,594.386 			"/>
		</g>
		<g>
			<polygon fill="#F7F5F5" points="562.02,542.591 593.973,525.795 625.919,542.591 619.82,507.016 645.666,481.822 
				609.945,476.633 593.973,444.265 577.997,476.633 542.279,481.822 568.127,507.016 			"/>
		</g>
	</g>
</g>
</svg>
